<?xml version="1.0" encoding="UTF-8" standalone="no"?>
<!-- Uploaded to: SVG Repo, www.svgrepo.com, Generator: SVG Repo Mixer Tools -->

<svg version="1.1" id="_x35_" viewBox="0 0 352.10999 512" xml:space="preserve" width="352.10999" height="512" xmlns="http://www.w3.org/2000/svg" xmlns:svg="http://www.w3.org/2000/svg"><defs id="defs25" />
<g id="g25">
	<g id="g18">
		<g id="g12">
			<rect x="209.44501" y="21.061001" style="fill:#ffffff" width="52.326" height="8.7440004" id="rect1" />
			<rect x="209.44501" y="93.246002" style="fill:#ffffff" width="52.326" height="8.7440004" id="rect2" />
			<rect x="209.44501" y="45.123001" style="fill:#ffffff" width="24.531" height="8.7440004" id="rect3" />
			<rect x="209.44501" y="69.184998" style="fill:#ffffff" width="24.531" height="8.7440004" id="rect4" />
			<rect x="209.44501" y="117.308" style="fill:#ffffff" width="24.531" height="8.7440004" id="rect5" />
			<rect x="209.44501" y="141.37" style="fill:#ffffff" width="24.531" height="8.7440004" id="rect6" />
			<rect x="209.44501" y="165.43201" style="fill:#ffffff" width="52.326" height="8.7440004" id="rect7" />
			<rect x="209.44501" y="237.617" style="fill:#ffffff" width="52.326" height="8.7440004" id="rect8" />
			<rect x="209.44501" y="189.494" style="fill:#ffffff" width="24.531" height="8.7440004" id="rect9" />
			<rect x="209.44501" y="213.55499" style="fill:#ffffff" width="24.531" height="8.7440004" id="rect10" />
			<rect x="209.44501" y="261.67899" style="fill:#ffffff" width="24.531" height="8.7440004" id="rect11" />
			<rect x="209.44501" y="285.741" style="fill:#ffffff" width="24.531" height="8.7440004" id="rect12" />
		</g>
		<g id="g17">
			<path style="fill:#ffffff" d="m 293.996,30.094 c -0.798,0 -1.517,0.08 -2.315,0.159 l 0.958,-8.142 h 16.843 v -9.819 h -25.305 l -2.954,26.582 c 1.597,-0.239 3.193,-0.319 5.268,-0.319 8.222,0 12.772,2.794 12.772,8.541 0,5.188 -4.39,7.983 -9.18,7.983 -3.752,0 -7.264,-1.118 -9.419,-2.155 l -2.076,9.02 c 2.475,1.277 7.185,2.474 12.294,2.474 12.852,0 20.355,-8.461 20.355,-18.2 0.002,-11.733 -9.258,-16.124 -17.241,-16.124 z" id="path12" />
			<path style="fill:#ffffff" d="m 334.947,11.575 c -12.293,0 -17.641,12.054 -17.641,26.582 0,12.852 4.31,26.262 17.402,26.262 10.936,0 17.402,-9.898 17.402,-26.662 0,-12.772 -3.992,-26.182 -17.163,-26.182 z m -0.08,43.345 c -3.752,0 -5.667,-5.268 -5.667,-16.923 0,-11.655 2.155,-17.003 5.667,-17.003 3.672,0 5.349,5.987 5.349,17.003 0,13.969 -2.555,16.923 -5.349,16.923 z" id="path13" />
			<path style="fill:#ffffff" d="m 300.542,154.383 v -0.16 c 5.348,-2.156 8.541,-6.386 8.541,-11.655 0,-6.945 -5.428,-12.692 -15.566,-12.692 -5.588,0 -11.016,1.676 -13.73,3.353 l 2.315,8.541 c 1.916,-1.198 5.269,-2.554 8.541,-2.554 4.231,0 6.466,2.235 6.466,5.348 0,4.071 -4.071,5.908 -7.663,6.147 h -3.831 v 8.302 h 3.432 c 4.949,0 9.499,2.315 9.499,7.424 0,3.911 -2.954,6.945 -8.222,6.945 -3.672,0 -7.743,-1.437 -9.659,-2.634 l -2.555,8.94 c 2.634,1.676 7.583,3.033 13.251,3.033 10.058,0 16.683,-4.79 18.679,-11.415 0.399,-1.357 0.639,-2.794 0.639,-4.231 0.001,-6.785 -4.549,-11.336 -10.137,-12.692 z" id="path14" />
			<path style="fill:#ffffff" d="m 334.947,129.876 c -12.293,0 -17.641,12.054 -17.641,26.502 0,12.932 4.31,26.342 17.402,26.342 10.936,0 17.402,-9.898 17.402,-26.662 0,-12.771 -3.992,-26.182 -17.163,-26.182 z m -0.08,43.345 c -3.752,0 -5.667,-5.269 -5.667,-16.923 0,-11.735 2.155,-17.003 5.667,-17.003 3.672,0 5.349,5.987 5.349,17.003 0,13.97 -2.555,16.923 -5.349,16.923 z" id="path15" />
			<path style="fill:#ffffff" d="m 293.677,248.816 -13.171,6.546 2.634,8.541 8.861,-4.47 h 0.16 v 40.791 h 11.575 v -51.408 z" id="path16" />
			<path style="fill:#ffffff" d="m 334.947,248.097 c -12.293,0 -17.641,12.134 -17.641,26.582 0,12.932 4.31,26.262 17.402,26.262 10.936,0 17.402,-9.818 17.402,-26.582 0,-12.771 -3.992,-26.262 -17.163,-26.262 z m -0.08,43.425 c -3.752,0 -5.667,-5.269 -5.667,-17.003 0,-11.655 2.155,-16.923 5.667,-16.923 3.672,0 5.349,5.907 5.349,16.923 0,13.97 -2.555,17.003 -5.349,17.003 z" id="path17" />
		</g>
	</g>
	<path style="fill:#ffffff" d="M 235.804,394.098 C 235.804,459.236 183.039,512 117.902,512 V 0 c 9.898,0 19.238,2.395 27.54,6.706 11.495,5.827 20.834,15.246 26.662,26.661 4.23,8.222 6.625,17.562 6.625,27.46 v 232.292 c 34.165,20.595 57.075,58.113 57.075,100.979 z" id="path18" />
	<path style="fill:#ffffff" d="m 117.902,0 v 512 c -13.889,0 -27.22,-2.395 -39.593,-6.785 C 45.021,493.321 18.679,466.979 6.785,433.692 2.395,421.319 0,407.987 0,394.098 0,351.232 22.91,313.714 57.075,293.119 V 60.827 C 57.075,27.38 84.455,0 117.902,0 Z" id="path19" />
	<path style="fill:#64c0b0" d="m 117.909,489.471 c -52.585,0 -95.365,-42.78 -95.365,-95.365 0,-33.716 17.265,-64.264 46.181,-81.717 l 10.887,-6.571 V 60.844 c 0,-21.117 17.179,-38.296 38.296,-38.296 21.117,0 38.296,17.179 38.296,38.296 v 244.975 l 10.887,6.571 c 28.918,17.454 46.183,48.003 46.183,81.717 0.002,52.584 -42.78,95.364 -95.365,95.364 z" id="path20" />
	<path style="fill:#f4f9f4" d="M 156.206,60.844 V 163.726 H 79.613 V 60.844 c 0,-21.108 17.165,-38.296 38.296,-38.296 21.109,-10e-4 38.297,17.188 38.297,38.296 z" id="path21" />
	<path style="opacity:0.16;fill:#040000" d="m 213.268,394.106 c 0,52.579 -42.779,95.358 -95.358,95.358 V 22.547 c 21.108,0 38.296,17.188 38.296,38.296 v 244.978 l 10.881,6.578 c 28.925,17.437 46.181,47.984 46.181,81.707 z" id="path22" />
	<path style="opacity:0.16;fill:#040000" d="M 156.206,60.844 V 163.726 H 117.91 V 22.547 c 21.108,0 38.296,17.189 38.296,38.297 z" id="path23" />
	<circle style="fill:#85cbbf" cx="76.509003" cy="358.733" r="29.013" id="circle23" />
	<circle style="fill:#ffffff" cx="262.95401" cy="96.968002" r="9.9429998" id="circle24" />
	<circle style="fill:#ffffff" cx="262.95401" cy="241.40199" r="9.9429998" id="circle25" />
</g>
</svg>
