<?xml version="1.0" encoding="iso-8859-1"?>
<!-- Uploaded to: SVG Repo, www.svgrepo.com, Generator: SVG Repo Mixer Tools -->
<svg height="800px" width="800px" version="1.1" id="Layer_1" xmlns="http://www.w3.org/2000/svg" xmlns:xlink="http://www.w3.org/1999/xlink" 
	 viewBox="0 0 512.044 512.044" xml:space="preserve">
<path style="fill:#FDC794;" d="M481.784,176.596c10.593-20.303,0-45.021-24.717-48.552c-11.476-1.766-28.248,7.945-39.724,25.6
	l-55.614,84.745l41.49-149.186c4.414-15.007-0.883-30.897-14.124-38.841c-5.297-4.414-11.476-6.179-18.538-6.179
	c-19.421,0-30.897,21.186-35.31,35.31l-44.138,132.414V35.355c0-18.538-14.124-34.428-32.662-35.31
	c-20.303-0.883-37.959,11.476-37.959,35.31v194.207L176.349,73.313c-7.062-25.6-15.89-37.959-35.31-37.959
	c-15.007,0-28.248,8.828-33.545,22.952c-1.766,6.179-1.766,12.359,0,19.421l42.372,187.145l-15.89-23.835
	c-17.655-30.897-60.028-45.021-88.276-34.428c-4.414,0.883-7.062,3.531-10.593,5.297c-10.593,7.062-8.828,15.007-8.828,17.655
	s50.317,53.848,79.448,105.931c0,0,25.6,42.372,52.966,70.621v26.483c0,44.138,35.31,79.448,79.448,79.448h88.276
	c34.428,0,69.738-29.131,77.683-62.676c1.766-7.945,5.297-19.421,10.593-25.6c9.71-11.476,22.952-43.255,15.007-87.393
	c-2.648-15.007-1.766-38.841,1.766-52.966v-0.883L481.784,176.596z"/>
<g>
	<path style="fill:#F9A671;" d="M211.66,344.32c-4.414,0-8.828-3.531-8.828-7.945c-0.883-10.593-6.179-15.007-14.124-19.421
		c-29.131-19.421-40.607-36.193-46.786-46.786c-2.648-4.414-0.883-9.71,3.531-12.359c4.414-2.648,9.71-0.883,12.359,3.531
		c3.531,6.179,12.359,22.069,41.49,41.49c7.945,5.297,20.303,13.241,21.186,33.545C220.487,339.906,216.956,344.32,211.66,344.32
		L211.66,344.32z"/>
	<path style="fill:#F9A671;" d="M211.66,450.251c-0.883,0-0.883,0-1.766,0c-21.186-3.531-30.897-15.89-40.607-27.366
		c-2.648-3.531-5.297-7.062-8.828-9.71c-3.531-3.531-3.531-8.828,0-12.359c3.531-3.531,8.828-3.531,12.359,0
		c3.531,3.531,7.062,7.945,9.71,11.476c7.945,10.593,15.007,19.421,29.131,21.186c4.414,0.883,7.945,5.297,7.062,9.71
		C219.605,446.72,216.074,450.251,211.66,450.251z"/>
	<path style="fill:#F9A671;" d="M291.108,238.389c-5.297,0-8.828-3.531-8.828-8.828v-17.655c0-5.297,3.531-8.828,8.828-8.828
		c5.297,0,8.828,3.531,8.828,8.828v17.655C299.936,234.858,296.405,238.389,291.108,238.389z"/>
	<path style="fill:#F9A671;" d="M370.556,450.251c-3.531,0-7.062-2.648-8.828-6.179c-0.883-4.414,1.766-9.71,6.179-10.593
		l4.414-0.883c17.655-4.414,20.303-5.297,25.6-12.359c2.648-3.531,8.828-4.414,12.359-1.766c3.531,2.648,4.414,8.828,1.766,12.359
		c-8.828,12.359-17.655,14.124-35.31,19.421h-3.531C372.322,450.251,371.439,450.251,370.556,450.251z"/>
</g>
</svg>