<?xml version="1.0" encoding="iso-8859-1"?>
<!-- Uploaded to: SVG Repo, www.svgrepo.com, Generator: SVG Repo Mixer Tools -->
<svg height="800px" width="800px" version="1.1" id="Layer_1" xmlns="http://www.w3.org/2000/svg" xmlns:xlink="http://www.w3.org/1999/xlink" 
	 viewBox="0 0 512.044 512.044" xml:space="preserve">
<path style="fill:#FDC794;" d="M154.469,264.872l-11.476-11.476c-7.062-7.062-14.124-15.007-20.303-22.069
	c-20.303-23.834-56.497-34.428-81.214-24.717c-4.414,0.883-7.062,3.531-10.593,5.297c-10.593,7.062-8.828,15.007-8.828,17.655
	s50.317,53.848,79.448,105.931c0,0,25.6,42.372,52.966,70.621l16.772,50.317c10.593,33.545,42.372,55.614,76.8,55.614h74.152
	c34.428,0,69.738-29.131,77.683-62.676c1.766-7.945,5.297-19.421,10.593-25.6c7.945-8.828,17.655-30.897,17.655-61.793v-28.248
	c0-22.069,4.414-43.255,14.124-63.559l44.138-93.572c9.71-20.303,0-45.903-24.717-48.552c-10.593-0.883-25.6,6.179-39.724,25.6
	l-55.614,84.745l41.49-149.186c4.414-15.007-0.883-30.897-14.124-38.841c-5.297-4.414-11.476-6.179-18.538-6.179
	c-19.421,0-30.897,21.186-35.31,35.31L295.71,211.906V35.355c0-18.538-14.124-34.428-32.662-35.31
	c-20.303-0.883-37.959,11.476-37.959,35.31v194.207L180.952,73.313c-7.062-25.6-15.89-37.959-35.31-37.959
	c-15.007,0-28.248,8.828-33.545,22.952c-1.766,6.179-1.766,12.359,0,19.421L154.469,264.872"/>
<g>
	<path style="fill:#F9A671;" d="M198.607,441.424c-1.766,0-3.531-0.883-5.297-1.766c-5.297-4.414-9.71-7.062-15.007-11.476
		c-7.062-4.414-13.241-9.71-20.303-15.89c-3.531-3.531-3.531-8.828-0.883-12.359c3.531-3.531,8.828-3.531,12.359-0.883
		c6.179,5.297,12.359,9.71,18.538,14.124c5.297,3.531,10.593,7.062,15.89,12.359c3.531,3.531,4.414,8.828,0.883,12.359
		C203.903,440.541,201.255,441.424,198.607,441.424z"/>
	<path style="fill:#F9A671;" d="M366.331,450.251c-2.648,0-5.297-1.766-7.062-3.531c-2.648-4.414-1.766-9.71,2.648-12.359
		c5.297-3.531,11.476-6.179,17.655-7.945c6.179-2.648,13.241-4.414,15.89-7.945c3.531-3.531,8.828-3.531,12.359,0
		c3.531,3.531,3.531,8.828,0,12.359c-6.179,6.179-15.007,9.71-22.952,12.359c-5.297,1.766-10.593,3.531-13.241,6.179
		C369.862,449.368,368.096,450.251,366.331,450.251z"/>
	<path style="fill:#F9A671;" d="M163.296,291.355c-3.531,0-6.179-1.766-7.945-5.297l-8.828-17.655c-1.766-4.414,0-9.71,3.531-11.476
		c4.414-1.766,9.71,0,11.476,3.531l8.828,17.655c1.766,4.414,0,9.71-3.531,11.476C165.945,291.355,165.062,291.355,163.296,291.355z
		"/>
	<path style="fill:#F9A671;" d="M295.71,256.044c-5.297,0-8.828-3.531-8.828-8.828v-35.31c0-5.297,3.531-8.828,8.828-8.828
		c5.297,0,8.828,3.531,8.828,8.828v35.31C304.538,252.513,301.007,256.044,295.71,256.044z"/>
	<path style="fill:#F9A671;" d="M225.09,256.044c-5.297,0-8.828-3.531-8.828-8.828v-26.483c0-5.297,3.531-8.828,8.828-8.828
		s8.828,3.531,8.828,8.828v26.483C233.917,252.513,230.386,256.044,225.09,256.044z"/>
	<path style="fill:#F9A671;" d="M357.503,264.872c-0.883,0-1.766,0-2.648-0.883c-4.414-1.766-7.062-6.179-5.297-11.476l8.828-26.483
		c1.766-4.414,6.179-7.062,11.476-5.297c4.414,1.766,7.062,6.179,5.297,11.476l-8.828,26.483
		C364.565,262.224,361.034,264.872,357.503,264.872z"/>
</g>
</svg>