<?xml version="1.0" encoding="iso-8859-1"?>
<!-- Uploaded to: SVG Repo, www.svgrepo.com, Generator: SVG Repo Mixer Tools -->
<svg height="800px" width="800px" version="1.1" id="Layer_1" xmlns="http://www.w3.org/2000/svg" xmlns:xlink="http://www.w3.org/1999/xlink" 
	 viewBox="0 0 512.001 512.001" xml:space="preserve">
<path style="fill:#C7C5CB;" d="M492.681,297.605c-27.74-20.801-27.74-62.408,0-83.21l15.258-11.442
	c-8.532-26.258-8.404-25.865-16.936-52.123l-19.069-0.288c-34.668-0.523-59.126-34.185-48.91-67.319l5.62-18.225
	c-22.337-16.229-22.002-15.985-44.339-32.214L368.708,43.76c-28.355,19.955-67.927,7.097-79.137-25.713L283.404,0
	c-27.61,0-27.196,0-54.806,0l-6.166,18.047c-11.211,32.81-50.783,45.668-79.137,25.713l-15.596-10.976
	c-22.337,16.23-22.002,15.986-44.339,32.215l5.62,18.225c10.216,33.134-14.241,66.795-48.91,67.318l-19.069,0.288
	c-8.532,26.258-8.404,25.865-16.936,52.123l15.258,11.442c27.74,20.801,27.74,62.408,0,83.21L4.062,309.047
	c8.532,26.258,8.404,25.865,16.936,52.123l19.069,0.288c34.668,0.523,59.126,34.185,48.91,67.318l-5.619,18.226
	c22.337,16.229,22.002,15.985,44.339,32.214l15.596-10.976c28.355-19.954,67.927-7.097,79.137,25.713l6.166,18.048
	c27.61,0,27.196,0,54.806,0l6.166-18.047c11.211-32.81,50.783-45.668,79.138-25.713l15.596,10.976
	c22.337-16.229,22.002-15.985,44.339-32.214l-5.62-18.225c-10.216-33.134,14.241-66.795,48.91-67.318l19.069-0.288
	c8.532-26.258,8.404-25.865,16.936-52.123L492.681,297.605z M257.095,381.659c-70.268,0.598-127.35-56.484-126.753-126.752
	c0.58-68.228,56.338-123.985,124.566-124.566c70.268-0.598,127.35,56.484,126.753,126.752
	C381.079,325.321,325.322,381.079,257.095,381.659z"/>
<g>
	<path style="fill:#AEADB3;" d="M324.286,51.155c-15.509-4.509-28.913-16.126-34.716-33.108L283.404,0c-14.954,0-21.69,0-29.107,0
		l6.166,18.047C269.759,45.255,298.554,58.719,324.286,51.155z"/>
	<path style="fill:#AEADB3;" d="M114.187,43.761c13.679,9.627,29.965,11.597,44.421,7.395c-5.299-1.558-10.472-3.986-15.314-7.395
		l-15.596-10.976c-6.197,4.503-10.646,7.735-14.322,10.405L114.187,43.761z"/>
	<path style="fill:#AEADB3;" d="M492.681,214.395l15.258-11.442c-8.532-26.258-8.404-25.865-16.936-52.123l-19.069-0.288
		c-34.668-0.523-59.126-34.185-48.91-67.318l5.62-18.225c-22.337-16.229-22.002-15.985-44.339-32.214l-14.786,10.405
		c9.571,6.954,13.878,10.083,30.017,21.808l-5.62,18.225c-10.216,33.134,14.241,66.795,48.91,67.318l19.069,0.288
		c8.532,26.258,8.404,25.865,16.936,52.123l-15.258,11.442c-27.74,20.801-27.74,62.41,0,83.21l15.258,11.442
		c-8.532,26.258-8.404,25.865-16.936,52.123l-19.069,0.288c-34.668,0.523-59.126,34.185-48.91,67.318l5.62,18.225
		c-16.139,11.726-20.446,14.855-30.017,21.808l14.786,10.405c22.337-16.229,22.002-15.985,44.339-32.214l-5.62-18.225
		c-10.216-33.134,14.241-66.795,48.91-67.318l19.069-0.288c8.532-26.258,8.404-25.865,16.936-52.123l-15.258-11.442
		C464.941,276.805,464.941,235.196,492.681,214.395z"/>
	<path style="fill:#AEADB3;" d="M114.187,468.24l-0.811,0.57c3.675,2.671,8.124,5.903,14.322,10.405l15.596-10.976
		c4.842-3.407,10.015-5.836,15.314-7.395C144.151,456.642,127.866,458.613,114.187,468.24z"/>
	<path style="fill:#AEADB3;" d="M260.463,493.953L254.296,512c7.417,0,14.153,0,29.107,0l6.166-18.047
		c5.802-16.981,19.207-28.598,34.716-33.108C298.554,453.281,269.759,466.746,260.463,493.953z"/>
</g>
<path style="fill:#D8D8DA;" d="M256.001,90.297c-91.516,0-165.703,74.187-165.703,165.703s74.187,165.703,165.703,165.703
	S421.704,347.516,421.704,256S347.516,90.297,256.001,90.297z M257.095,381.659c-70.268,0.598-127.35-56.484-126.753-126.752
	c0.58-68.228,56.338-123.985,124.566-124.566c70.268-0.598,127.35,56.484,126.753,126.752
	C381.079,325.321,325.322,381.079,257.095,381.659z"/>
</svg>